<svg width="2713" height="1413" viewBox="0 0 2713 1413" fill="none" xmlns="http://www.w3.org/2000/svg">
<g clip-path="url(#clip0_5_9)">
<path d="M752.819 644.555C667.622 642.981 582.425 646.354 497.227 640.957C376.103 633.337 264.798 613.805 177.943 584.928C91.0869 556.05 32.7437 519.178 10.5805 479.157C-16.3419 431.315 15.3515 387.913 84.5317 347.098C198.185 279.972 381.189 250.12 609.006 246.747C658.421 246.016 708.346 248.771 757.59 245.229C834.438 249.67 910.945 246.578 988.816 246.972C1014.55 246.972 1039.93 247.478 1066 247.534L1719.64 248.377L1717.59 326.691L993.416 327.028L979.785 325.847C978.941 325.486 977.857 325.193 976.617 324.991C975.376 324.79 974.011 324.685 972.628 324.685C971.245 324.685 969.881 324.79 968.64 324.991C967.399 325.193 966.315 325.486 965.472 325.847H775.141L751.967 327.703C692.602 325.239 632.585 324.994 573.053 326.972C378.803 332.313 242.658 384.934 243.169 449.755C243.169 507.829 415.268 565.061 590.433 565.061C644.107 565.061 697.952 564.723 751.797 564.555L756.738 572.482V624.035C753.962 625.878 752.516 627.908 752.516 629.966C752.516 632.024 753.962 634.054 756.738 635.897L752.819 644.555Z" fill="#FA5C2D"/>
<path d="M788.091 326.072H965.472C966.271 326.455 967.339 326.768 968.586 326.984C969.833 327.2 971.22 327.313 972.628 327.313C974.037 327.313 975.424 327.2 976.67 326.984C977.917 326.768 978.986 326.455 979.785 326.072L993.416 327.253V643.711C985.408 698.525 984.556 751.484 1142.68 788.926C1195.56 802.531 1258.63 811.157 1325.17 813.887C1538.51 821.027 1728.67 755.644 1720.32 690.205C1718.27 675.138 1721.51 660.015 1722.19 644.892H1957.68C1956.32 675.082 1965.35 705.496 1944.56 735.293C1894.97 806.298 1764.45 854.14 1559.81 880.395C1355.16 906.649 1160.74 893.888 995.972 853.859C831.201 813.831 746.855 754.295 755.375 683.852C756.909 670.753 753.842 657.654 752.819 644.499C754.182 641.631 755.375 638.877 756.738 635.841C760.473 634.108 762.48 632.035 762.48 629.91C762.48 627.784 760.473 625.711 756.738 623.978V580.633C758.361 580.11 759.651 579.485 760.531 578.794C761.412 578.104 761.865 577.363 761.865 576.614C761.865 575.865 761.412 575.123 760.531 574.433C759.651 573.743 758.361 573.118 756.738 572.594C755.034 569.952 753.33 567.309 751.797 564.667C757.42 485.623 756.909 406.578 751.797 327.534L774.97 325.679C779.401 327.534 784.513 327.421 788.091 326.072Z" fill="#032D4A"/>
<path d="M993.928 643.487V565.285L1721.51 564.836H1960.06C2015.78 564.836 2071.5 566.016 2126.88 565.342C2219.25 563.979 2306.54 551.003 2370.83 529.076C2435.12 507.15 2471.54 477.936 2472.61 447.431C2473.67 416.925 2439.31 387.442 2376.58 365.031C2313.84 342.62 2227.48 328.982 2135.23 326.915C2077.98 325.847 2020.21 326.915 1962.62 327.309C1956.06 300.142 1956.06 272.846 1962.62 245.679C2030.78 246.578 2098.94 246.241 2165.39 248.658C2394.4 256.866 2561.73 295.882 2655.79 364.864C2749.84 433.845 2727.01 499.79 2596.66 561.631C2480.11 616.614 2314.49 642.193 2113.59 644.442C2062.47 645.004 2009.99 645.004 1958.19 645.229H1722.71L993.928 643.487Z" fill="#1EADE9"/>
<path d="M1960.24 564.611H1721.68C1720.32 485.229 1719.01 405.847 1717.76 326.466L1719.81 248.152C1719.81 229.712 1722.36 211.272 1719.81 192.889C1716.04 161.657 1675.35 132.153 1606.47 110.697C1537.58 89.2396 1445.97 77.5349 1351.24 78.0887C1152.74 78.0887 1001.42 132.172 993.416 195.756C991.031 212.622 990.69 229.881 989.327 246.972C912.309 246.578 834.949 249.67 758.101 245.229C752.99 193.619 759.976 143.697 839.38 96.0226C974.673 14.5608 1294.67 -13.4364 1517.21 5.62193C1784.56 28.953 1963.13 118.061 1960.24 197.948C1960.24 213.69 1962.79 229.431 1964.15 245.229C1957.59 272.396 1957.59 299.692 1964.15 326.859L1960.24 564.611Z" fill="#032D4A"/>
<path d="M756.568 624.035C760.303 625.767 762.31 627.84 762.31 629.966C762.31 632.092 760.303 634.165 756.568 635.897C753.791 634.054 752.346 632.024 752.346 629.966C752.346 627.908 753.791 625.878 756.568 624.035ZM756.738 572.65C758.361 573.174 759.651 573.799 760.531 574.489C761.412 575.18 761.865 575.921 761.865 576.67C761.865 577.419 761.412 578.16 760.531 578.85C759.651 579.541 758.361 580.166 756.738 580.69V572.65ZM788.091 326.072C783.661 327.703 779.401 327.815 775.141 326.072H788.091ZM979.785 326.072C978.986 326.455 977.917 326.768 976.67 326.984C975.424 327.2 974.037 327.313 972.628 327.313C971.22 327.313 969.833 327.2 968.586 326.984C967.339 326.768 966.27 326.455 965.472 326.072C966.315 325.711 967.399 325.418 968.64 325.216C969.881 325.015 971.245 324.91 972.628 324.91C974.011 324.91 975.376 325.015 976.617 325.216C977.857 325.418 978.941 325.711 979.785 326.072Z" fill="#5EA4A9"/>
</g>
<path d="M306.16 1248.26L281.36 1273.06V1317.06H260.56V1177.06H281.36V1254.46L359.56 1177.06H377.56L320.16 1234.26L383.76 1317.06H359.16L306.16 1248.26ZM437.776 1319.06C424.842 1319.06 414.976 1316.46 408.176 1311.26C401.509 1306.06 398.176 1298.66 398.176 1289.06C398.176 1278.8 402.242 1271 410.376 1265.66C418.509 1260.2 430.376 1257.46 445.976 1257.46H475.176V1250.26C475.176 1242.13 472.709 1235.93 467.776 1231.66C462.842 1227.4 455.709 1225.26 446.376 1225.26C437.576 1225.26 430.509 1227.33 425.176 1231.46C419.842 1235.46 416.709 1241.2 415.776 1248.66H401.376C402.709 1238.53 407.376 1230.73 415.376 1225.26C423.376 1219.8 434.042 1217.06 447.376 1217.06C462.309 1217.06 473.709 1220.13 481.576 1226.26C489.442 1232.26 493.376 1241 493.376 1252.46V1284.86C493.376 1296.33 494.376 1307.06 496.376 1317.06H479.176C477.709 1311.06 476.776 1305.33 476.376 1299.86C468.376 1312.66 455.509 1319.06 437.776 1319.06ZM442.376 1311.26C448.509 1311.26 454.042 1309.86 458.976 1307.06C464.042 1304.13 467.976 1300.26 470.776 1295.46C473.709 1290.66 475.176 1285.33 475.176 1279.46V1265.66H450.976C439.242 1265.66 430.509 1267.6 424.776 1271.46C419.176 1275.2 416.376 1281 416.376 1288.86C416.376 1296.2 418.576 1301.8 422.976 1305.66C427.376 1309.4 433.842 1311.26 442.376 1311.26ZM523.041 1219.06H541.441V1236.26C544.641 1230.4 549.575 1225.73 556.241 1222.26C563.041 1218.8 570.641 1217.06 579.041 1217.06C591.975 1217.06 602.175 1220.46 609.641 1227.26C617.108 1233.93 620.841 1243 620.841 1254.46V1317.06H602.441V1252.46C602.441 1243.8 600.041 1237.13 595.241 1232.46C590.441 1227.66 583.641 1225.26 574.841 1225.26C564.708 1225.26 556.575 1228.6 550.441 1235.26C544.441 1241.8 541.441 1250.46 541.441 1261.26V1317.06H523.041V1219.06ZM646.869 1219.06H665.269V1236.26C668.469 1230.4 673.403 1225.73 680.069 1222.26C686.869 1218.8 694.469 1217.06 702.869 1217.06C715.803 1217.06 726.003 1220.46 733.469 1227.26C740.936 1233.93 744.669 1243 744.669 1254.46V1317.06H726.269V1252.46C726.269 1243.8 723.869 1237.13 719.069 1232.46C714.269 1227.66 707.469 1225.26 698.669 1225.26C688.536 1225.26 680.403 1228.6 674.269 1235.26C668.269 1241.8 665.269 1250.46 665.269 1261.26V1317.06H646.869V1219.06ZM807.698 1319.06C794.764 1319.06 784.898 1316.46 778.098 1311.26C771.431 1306.06 768.098 1298.66 768.098 1289.06C768.098 1278.8 772.164 1271 780.298 1265.66C788.431 1260.2 800.298 1257.46 815.898 1257.46H845.098V1250.26C845.098 1242.13 842.631 1235.93 837.698 1231.66C832.764 1227.4 825.631 1225.26 816.298 1225.26C807.498 1225.26 800.431 1227.33 795.098 1231.46C789.764 1235.46 786.631 1241.2 785.698 1248.66H771.298C772.631 1238.53 777.298 1230.73 785.298 1225.26C793.298 1219.8 803.964 1217.06 817.298 1217.06C832.231 1217.06 843.631 1220.13 851.498 1226.26C859.364 1232.26 863.298 1241 863.298 1252.46V1284.86C863.298 1296.33 864.298 1307.06 866.298 1317.06H849.098C847.631 1311.06 846.698 1305.33 846.298 1299.86C838.298 1312.66 825.431 1319.06 807.698 1319.06ZM812.298 1311.26C818.431 1311.26 823.964 1309.86 828.898 1307.06C833.964 1304.13 837.898 1300.26 840.698 1295.46C843.631 1290.66 845.098 1285.33 845.098 1279.46V1265.66H820.898C809.164 1265.66 800.431 1267.6 794.698 1271.46C789.098 1275.2 786.298 1281 786.298 1288.86C786.298 1296.2 788.498 1301.8 792.898 1305.66C797.298 1309.4 803.764 1311.26 812.298 1311.26ZM892.963 1219.06H911.363V1236.26C914.563 1230.4 919.497 1225.73 926.163 1222.26C932.963 1218.8 940.563 1217.06 948.963 1217.06C961.897 1217.06 972.097 1220.46 979.563 1227.26C987.03 1233.93 990.763 1243 990.763 1254.46V1317.06H972.363V1252.46C972.363 1243.8 969.963 1237.13 965.163 1232.46C960.363 1227.66 953.563 1225.26 944.763 1225.26C934.63 1225.26 926.497 1228.6 920.363 1235.26C914.363 1241.8 911.363 1250.46 911.363 1261.26V1317.06H892.963V1219.06ZM1106.52 1319.06C1091.85 1319.06 1080.52 1316.06 1072.52 1310.06C1064.52 1303.93 1060.18 1295.26 1059.52 1284.06H1078.52C1078.78 1292.73 1081.32 1299.2 1086.12 1303.46C1091.05 1307.6 1097.92 1309.66 1106.72 1309.66C1115.78 1309.66 1122.65 1307.06 1127.32 1301.86C1132.12 1296.66 1134.52 1288.93 1134.52 1278.66V1177.06H1155.32V1274.66C1155.32 1289.06 1151.12 1300.06 1142.72 1307.66C1134.45 1315.26 1122.38 1319.06 1106.52 1319.06ZM1221.17 1319.06C1208.24 1319.06 1198.37 1316.46 1191.57 1311.26C1184.91 1306.06 1181.57 1298.66 1181.57 1289.06C1181.57 1278.8 1185.64 1271 1193.77 1265.66C1201.91 1260.2 1213.77 1257.46 1229.37 1257.46H1258.57V1250.26C1258.57 1242.13 1256.11 1235.93 1251.17 1231.66C1246.24 1227.4 1239.11 1225.26 1229.77 1225.26C1220.97 1225.26 1213.91 1227.33 1208.57 1231.46C1203.24 1235.46 1200.11 1241.2 1199.17 1248.66H1184.77C1186.11 1238.53 1190.77 1230.73 1198.77 1225.26C1206.77 1219.8 1217.44 1217.06 1230.77 1217.06C1245.71 1217.06 1257.11 1220.13 1264.97 1226.26C1272.84 1232.26 1276.77 1241 1276.77 1252.46V1284.86C1276.77 1296.33 1277.77 1307.06 1279.77 1317.06H1262.57C1261.11 1311.06 1260.17 1305.33 1259.77 1299.86C1251.77 1312.66 1238.91 1319.06 1221.17 1319.06ZM1225.77 1311.26C1231.91 1311.26 1237.44 1309.86 1242.37 1307.06C1247.44 1304.13 1251.37 1300.26 1254.17 1295.46C1257.11 1290.66 1258.57 1285.33 1258.57 1279.46V1265.66H1234.37C1222.64 1265.66 1213.91 1267.6 1208.17 1271.46C1202.57 1275.2 1199.77 1281 1199.77 1288.86C1199.77 1296.2 1201.97 1301.8 1206.37 1305.66C1210.77 1309.4 1217.24 1311.26 1225.77 1311.26ZM1315.64 1355.66C1311.51 1355.66 1307.57 1355.13 1303.84 1354.06C1300.24 1353 1297.24 1351.53 1294.84 1349.66L1300.44 1339.86C1301.91 1341.86 1303.97 1343.46 1306.64 1344.66C1309.44 1345.86 1312.11 1346.46 1314.64 1346.46C1319.04 1346.46 1323.44 1345 1327.84 1342.06C1332.37 1339.26 1336.04 1335.6 1338.84 1331.06C1341.64 1326.53 1343.04 1321.93 1343.04 1317.26C1343.04 1312.73 1341.97 1308.53 1339.84 1304.66L1294.04 1219.06H1314.44L1354.84 1298.06L1393.24 1219.06H1404.84L1355.84 1320.06C1344.24 1343.8 1330.84 1355.66 1315.64 1355.66ZM1449.69 1319.06C1436.76 1319.06 1426.89 1316.46 1420.09 1311.26C1413.42 1306.06 1410.09 1298.66 1410.09 1289.06C1410.09 1278.8 1414.16 1271 1422.29 1265.66C1430.42 1260.2 1442.29 1257.46 1457.89 1257.46H1487.09V1250.26C1487.09 1242.13 1484.62 1235.93 1479.69 1231.66C1474.76 1227.4 1467.62 1225.26 1458.29 1225.26C1449.49 1225.26 1442.42 1227.33 1437.09 1231.46C1431.76 1235.46 1428.62 1241.2 1427.69 1248.66H1413.29C1414.62 1238.53 1419.29 1230.73 1427.29 1225.26C1435.29 1219.8 1445.96 1217.06 1459.29 1217.06C1474.22 1217.06 1485.62 1220.13 1493.49 1226.26C1501.36 1232.26 1505.29 1241 1505.29 1252.46V1284.86C1505.29 1296.33 1506.29 1307.06 1508.29 1317.06H1491.09C1489.62 1311.06 1488.69 1305.33 1488.29 1299.86C1480.29 1312.66 1467.42 1319.06 1449.69 1319.06ZM1454.29 1311.26C1460.42 1311.26 1465.96 1309.86 1470.89 1307.06C1475.96 1304.13 1479.89 1300.26 1482.69 1295.46C1485.62 1290.66 1487.09 1285.33 1487.09 1279.46V1265.66H1462.89C1451.16 1265.66 1442.42 1267.6 1436.69 1271.46C1431.09 1275.2 1428.29 1281 1428.29 1288.86C1428.29 1296.2 1430.49 1301.8 1434.89 1305.66C1439.29 1309.4 1445.76 1311.26 1454.29 1311.26ZM1586.76 1319.06C1575.42 1319.06 1565.49 1317 1556.96 1312.86C1548.56 1308.73 1542.09 1302.86 1537.56 1295.26C1533.02 1287.53 1530.76 1278.46 1530.76 1268.06C1530.76 1257.66 1533.02 1248.66 1537.56 1241.06C1542.09 1233.33 1548.56 1227.4 1556.96 1223.26C1565.36 1219.13 1575.22 1217.06 1586.56 1217.06C1600.42 1217.06 1611.82 1220 1620.76 1225.86C1629.82 1231.6 1635.42 1239.6 1637.56 1249.86H1622.56C1620.69 1242.26 1616.56 1236.26 1610.16 1231.86C1603.89 1227.46 1596.29 1225.26 1587.36 1225.26C1575.62 1225.26 1566.29 1229.13 1559.36 1236.86C1552.56 1244.46 1549.16 1254.86 1549.16 1268.06C1549.16 1281.26 1552.56 1291.73 1559.36 1299.46C1566.29 1307.06 1575.62 1310.86 1587.36 1310.86C1596.16 1310.86 1603.76 1308.66 1610.16 1304.26C1616.56 1299.86 1620.69 1293.86 1622.56 1286.26H1637.56C1635.42 1296.53 1629.82 1304.6 1620.76 1310.46C1611.69 1316.2 1600.36 1319.06 1586.76 1319.06ZM1661.32 1180.46H1679.72V1237.86C1683.18 1231.33 1688.32 1226.26 1695.12 1222.66C1702.05 1218.93 1709.85 1217.06 1718.52 1217.06C1731.32 1217.06 1741.25 1220.26 1748.32 1226.66C1755.52 1232.93 1759.12 1241.73 1759.12 1253.06V1317.06H1740.72V1251.26C1740.72 1243 1738.45 1236.6 1733.92 1232.06C1729.38 1227.53 1722.92 1225.26 1714.52 1225.26C1703.98 1225.26 1695.52 1228.73 1689.12 1235.66C1682.85 1242.6 1679.72 1251.73 1679.72 1263.06V1317.06H1661.32V1180.46ZM1821.96 1319.06C1809.02 1319.06 1799.16 1316.46 1792.36 1311.26C1785.69 1306.06 1782.36 1298.66 1782.36 1289.06C1782.36 1278.8 1786.42 1271 1794.56 1265.66C1802.69 1260.2 1814.56 1257.46 1830.16 1257.46H1859.36V1250.26C1859.36 1242.13 1856.89 1235.93 1851.96 1231.66C1847.02 1227.4 1839.89 1225.26 1830.56 1225.26C1821.76 1225.26 1814.69 1227.33 1809.36 1231.46C1804.02 1235.46 1800.89 1241.2 1799.96 1248.66H1785.56C1786.89 1238.53 1791.56 1230.73 1799.56 1225.26C1807.56 1219.8 1818.22 1217.06 1831.56 1217.06C1846.49 1217.06 1857.89 1220.13 1865.76 1226.26C1873.62 1232.26 1877.56 1241 1877.56 1252.46V1284.86C1877.56 1296.33 1878.56 1307.06 1880.56 1317.06H1863.36C1861.89 1311.06 1860.96 1305.33 1860.56 1299.86C1852.56 1312.66 1839.69 1319.06 1821.96 1319.06ZM1826.56 1311.26C1832.69 1311.26 1838.22 1309.86 1843.16 1307.06C1848.22 1304.13 1852.16 1300.26 1854.96 1295.46C1857.89 1290.66 1859.36 1285.33 1859.36 1279.46V1265.66H1835.16C1823.42 1265.66 1814.69 1267.6 1808.96 1271.46C1803.36 1275.2 1800.56 1281 1800.56 1288.86C1800.56 1296.2 1802.76 1301.8 1807.16 1305.66C1811.56 1309.4 1818.02 1311.26 1826.56 1311.26ZM1907.22 1219.06H1925.62V1236.26C1928.82 1230.4 1933.75 1225.73 1940.42 1222.26C1947.22 1218.8 1954.82 1217.06 1963.22 1217.06C1976.15 1217.06 1986.35 1220.46 1993.82 1227.26C2001.29 1233.93 2005.02 1243 2005.02 1254.46V1317.06H1986.62V1252.46C1986.62 1243.8 1984.22 1237.13 1979.42 1232.46C1974.62 1227.66 1967.82 1225.26 1959.02 1225.26C1948.89 1225.26 1940.75 1228.6 1934.62 1235.26C1928.62 1241.8 1925.62 1250.46 1925.62 1261.26V1317.06H1907.22V1219.06ZM2078.25 1319.06C2068.25 1319.06 2059.32 1316.93 2051.45 1312.66C2043.72 1308.26 2037.65 1302.2 2033.25 1294.46C2028.98 1286.73 2026.85 1277.93 2026.85 1268.06C2026.85 1257.93 2028.92 1249.06 2033.05 1241.46C2037.18 1233.73 2042.98 1227.73 2050.45 1223.46C2058.05 1219.2 2066.78 1217.06 2076.65 1217.06C2085.58 1217.06 2093.52 1218.86 2100.45 1222.46C2107.38 1225.93 2112.78 1230.86 2116.65 1237.26V1180.46H2135.05V1317.06H2116.65V1299.26C2112.92 1305.66 2107.72 1310.6 2101.05 1314.06C2094.52 1317.4 2086.92 1319.06 2078.25 1319.06ZM2080.85 1311.06C2087.92 1311.06 2094.12 1309.33 2099.45 1305.86C2104.92 1302.26 2109.12 1297.26 2112.05 1290.86C2115.12 1284.33 2116.65 1276.86 2116.65 1268.46C2116.65 1259.8 2115.12 1252.2 2112.05 1245.66C2109.12 1239 2104.85 1233.93 2099.25 1230.46C2093.78 1226.86 2087.45 1225.06 2080.25 1225.06C2069.58 1225.06 2061.05 1228.93 2054.65 1236.66C2048.38 1244.26 2045.25 1254.6 2045.25 1267.66C2045.25 1276.33 2046.72 1283.93 2049.65 1290.46C2052.58 1297 2056.72 1302.06 2062.05 1305.66C2067.52 1309.26 2073.78 1311.06 2080.85 1311.06ZM2162.29 1219.06H2180.69V1240.06C2183.22 1232.73 2187.22 1227.06 2192.69 1223.06C2198.29 1219.06 2205.02 1217.06 2212.89 1217.06C2215.95 1217.06 2218.22 1217.33 2219.69 1217.86L2217.89 1230.66C2215.89 1229.6 2213.09 1229.06 2209.49 1229.06C2200.42 1229.06 2193.35 1232.86 2188.29 1240.46C2183.22 1248.06 2180.69 1257.66 2180.69 1269.26V1317.06H2162.29V1219.06ZM2272.54 1319.06C2259.61 1319.06 2249.74 1316.46 2242.94 1311.26C2236.27 1306.06 2232.94 1298.66 2232.94 1289.06C2232.94 1278.8 2237.01 1271 2245.14 1265.66C2253.27 1260.2 2265.14 1257.46 2280.74 1257.46H2309.94V1250.26C2309.94 1242.13 2307.47 1235.93 2302.54 1231.66C2297.61 1227.4 2290.47 1225.26 2281.14 1225.26C2272.34 1225.26 2265.27 1227.33 2259.94 1231.46C2254.61 1235.46 2251.47 1241.2 2250.54 1248.66H2236.14C2237.47 1238.53 2242.14 1230.73 2250.14 1225.26C2258.14 1219.8 2268.81 1217.06 2282.14 1217.06C2297.07 1217.06 2308.47 1220.13 2316.34 1226.26C2324.21 1232.26 2328.14 1241 2328.14 1252.46V1284.86C2328.14 1296.33 2329.14 1307.06 2331.14 1317.06H2313.94C2312.47 1311.06 2311.54 1305.33 2311.14 1299.86C2303.14 1312.66 2290.27 1319.06 2272.54 1319.06ZM2277.14 1311.26C2283.27 1311.26 2288.81 1309.86 2293.74 1307.06C2298.81 1304.13 2302.74 1300.26 2305.54 1295.46C2308.47 1290.66 2309.94 1285.33 2309.94 1279.46V1265.66H2285.74C2274.01 1265.66 2265.27 1267.6 2259.54 1271.46C2253.94 1275.2 2251.14 1281 2251.14 1288.86C2251.14 1296.2 2253.34 1301.8 2257.74 1305.66C2262.14 1309.4 2268.61 1311.26 2277.14 1311.26ZM2357.81 1219.06H2376.21V1236.26C2379.41 1230.4 2384.34 1225.73 2391.01 1222.26C2397.81 1218.8 2405.41 1217.06 2413.81 1217.06C2426.74 1217.06 2436.94 1220.46 2444.41 1227.26C2451.87 1233.93 2455.61 1243 2455.61 1254.46V1317.06H2437.21V1252.46C2437.21 1243.8 2434.81 1237.13 2430.01 1232.46C2425.21 1227.66 2418.41 1225.26 2409.61 1225.26C2399.47 1225.26 2391.34 1228.6 2385.21 1235.26C2379.21 1241.8 2376.21 1250.46 2376.21 1261.26V1317.06H2357.81V1219.06Z" fill="#FDF2F2"/>
<defs>
<clipPath id="clip0_5_9">
<rect width="2712" height="894" fill="white" transform="translate(0.697586)"/>
</clipPath>
</defs>
</svg>
